<?xml version="1.0" encoding="UTF-8" standalone="no"?>

<svg width="131.90639mm" height="56.911289mm" viewBox="0 0 131.90639 56.911289" version="1.1" id="svg5" xml:space="preserve"
    xmlns:inkscape="http://www.inkscape.org/namespaces/inkscape"
    xmlns:sodipodi="http://sodipodi.sourceforge.net/DTD/sodipodi-0.dtd"
    xmlns="http://www.w3.org/2000/svg"
    xmlns:svg="http://www.w3.org/2000/svg">
    <sodipodi:namedview id="namedview7" pagecolor="#ffffff" bordercolor="#000000" borderopacity="0.25" inkscape:showpageshadow="2" inkscape:pageopacity="0.0" inkscape:pagecheckerboard="0" inkscape:deskcolor="#d1d1d1" inkscape:document-units="mm" showgrid="false" />
    <defs id="defs2">
        <rect x="316.82764" y="75.334572" width="382.30536" height="179.53566" id="rect143" />
    </defs>
    <g inkscape:label="Layer 1" inkscape:groupmode="layer" id="layer1" transform="translate(-36.514039,-27.36297)">
        <text xml:space="preserve" transform="matrix(0.26458333,0,0,0.26458333,13.971219,9.3141459)" id="text141" style="font-size:42.6667px;white-space:pre;shape-inside:url(#rect143);fill:#000000" inkscape:export-filename="text141.svg" inkscape:export-xdpi="51.419998" inkscape:export-ydpi="51.419998">
            <tspan x="316.82812" y="114.26011" id="tspan603">ANIRUDDHA </tspan>
            <tspan x="316.82812" y="167.59348" id="tspan605">PANDIT
            </tspan>
            <tspan x="316.82812" y="220.92685" id="tspan607">潘尼亞</tspan>
        </text>
        <g id="g375" transform="matrix(0.11390941,0,0,0.11652597,36.51404,27.36297)">
            <g id="g317">
                <g id="g315">
                    <rect x="103.1" y="453.5" width="282.20001" height="34.900002" id="rect307" />
                    <rect x="143" y="367.5" width="202" height="66.300003" id="rect309" />
                    <path d="M 0,0 V 348.1 H 488.4 V 0 Z m 461.7,311.3 c 0,5.4 -4.3,9.7 -9.7,9.7 H 36.4 c -5.4,0 -9.7,-4.3 -9.7,-9.7 V 36.8 c 0,-5.4 4.3,-9.7 9.7,-9.7 H 452 c 5.4,0 9.7,4.3 9.7,9.7 z" id="path311" />
                    <path d="M 46.1,301.6 H 442.3 V 46.5 H 46.1 Z M 309.7,194.2 c 0,-1.9 1.2,-3.5 2.7,-4.3 l 54.7,-25.2 -54.7,-24.8 c -1.6,-0.8 -2.7,-2.3 -2.7,-4.3 V 116 c 0,-3.3 3.4,-5.4 6.3,-4 l 82.4,38.3 c 1.6,0.8 2.7,2.3 2.7,4.3 v 21.7 c 0,1.9 -1.2,3.5 -2.7,4.3 L 316,218.5 c -3,1.4 -6.4,-0.8 -6.4,-4.1 v -20.2 z m -121.2,59 75.8,-162.5 c 0.8,-1.6 2.3,-2.7 4.3,-2.7 h 17.2 c 3.5,0 5.9,3.7 4.4,6.9 l -75.9,162.5 c -0.8,1.6 -2.3,2.7 -4.3,2.7 h -17.2 c -3.4,0 -5.8,-3.7 -4.3,-6.9 z M 87.6,154.7 c 0,-1.9 1.2,-3.5 2.7,-4.3 l 82.5,-38.3 c 2.9,-1.4 6.3,0.8 6.3,4 v 20 c 0,1.9 -1.2,3.5 -2.7,4.3 l -54.7,24.8 54.7,25.2 c 1.6,0.8 2.7,2.3 2.7,4.3 v 20.4 c 0,3.2 -3.3,5.4 -6.3,4 L 90.3,181.2 c -1.6,-0.8 -2.7,-2.3 -2.7,-4.3 0,0 0,-22.2 0,-22.2 z" id="path313" />
                </g>
            </g>
            <g id="g319">
            </g>
            <g id="g321">
            </g>
            <g id="g323">
            </g>
            <g id="g325">
            </g>
            <g id="g327">
            </g>
            <g id="g329">
            </g>
            <g id="g331">
            </g>
            <g id="g333">
            </g>
            <g id="g335">
            </g>
            <g id="g337">
            </g>
            <g id="g339">
            </g>
            <g id="g341">
            </g>
            <g id="g343">
            </g>
            <g id="g345">
            </g>
            <g id="g347">
            </g>
        </g>
    </g>
</svg>
